<?xml version="1.0" standalone="no"?>
<!DOCTYPE svg PUBLIC "-//W3C//DTD SVG 20010904//EN"
 "http://www.w3.org/TR/2001/REC-SVG-20010904/DTD/svg10.dtd">
<svg version="1.0" xmlns="http://www.w3.org/2000/svg"
 width="512.000000pt" height="512.000000pt" viewBox="0 0 512.000000 512.000000"
 preserveAspectRatio="xMidYMid meet">
<metadata>
Created by potrace 1.15, written by Peter Selinger 2001-2017
</metadata>
<g transform="translate(0.000000,512.000000) scale(0.100000,-0.100000)"
fill="#000000" stroke="none">
<path d="M3119 5097 c-38 -25 -2245 -2381 -2286 -2439 -32 -47 -40 -111 -20
-159 9 -22 421 -472 1072 -1170 1156 -1240 1207 -1294 1247 -1315 130 -69 285
97 209 223 -11 17 -499 545 -1085 1173 -586 628 -1066 1145 -1066 1150 0 5
480 523 1066 1151 586 628 1074 1156 1085 1173 81 133 -92 300 -222 213z"/>
<path d="M4085 5102 c-37 -23 -85 -73 -1314 -1390 -568 -610 -989 -1068 -997
-1087 -18 -43 -18 -86 0 -129 11 -27 1928 -2095 2210 -2384 94 -96 119 -112
179 -112 116 0 197 139 138 236 -11 17 -499 545 -1085 1173 -586 629 -1066
1146 -1066 1151 0 5 480 523 1066 1151 586 628 1074 1156 1085 1173 79 129
-87 296 -216 218z"/>
</g>
</svg>
